<?xml version="1.0" encoding="UTF-8" standalone="no"?>
<!-- Created with Inkscape (http://www.inkscape.org/) -->

<svg
   width="1400"
   height="700"
   viewBox="0 0 370.41665 185.20834"
   version="1.1"
   id="svg1"
   xml:space="preserve"
   xmlns="http://www.w3.org/2000/svg"
   xmlns:svg="http://www.w3.org/2000/svg"><defs
     id="defs1" /><g
     id="layer1"><rect
       style="fill:#ffffff;fill-opacity:0.996109;stroke:#ffffff;stroke-width:0;stroke-linecap:round;stroke-dasharray:none"
       id="rect6"
       width="474.13272"
       height="243.95546"
       x="-54.758938"
       y="-25.734224" /><path
       style="fill:#000000;stroke:#000000;stroke-width:6.2;stroke-linecap:round;stroke-linejoin:miter;stroke-dasharray:none;stroke-opacity:1"
       d="m 54.087749,180.64741 c -10.300231,-0.92049 -18.797987,-2.03379 -23.653361,-3.09887 -6.524859,-1.4313 -7.89028,-2.84731 -8.119867,-8.42067 -0.09224,-2.2391 -0.298372,-3.42605 -0.645769,-3.71848 -0.280663,-0.23625 -3.102383,-1.177 -6.270476,-2.09056 -6.4496114,-1.85982 -7.7965261,-2.67652 -8.4129427,-5.10121 -0.3322803,-1.30701 -0.101156,-3.54275 0.5004275,-4.84074 0.6865111,-1.48124 15.6849272,-22.23368 23.9469762,-33.13405 5.157105,-6.80392 12.692044,-15.84575 18.041811,-21.649909 7.214641,-7.827456 62.854852,-54.979538 72.506722,-61.445551 5.74131,-3.846237 11.56882,-6.599874 20.16456,-9.528226 9.44862,-3.218903 12.31732,-3.717005 29.41436,-5.107398 10.59516,-0.861629 10.22075,-0.800907 10.4955,-1.701958 0.12329,-0.404306 0.22643,-3.193009 0.2292,-6.197126 0.006,-6.0958377 0.26187,-6.9761192 2.30019,-7.9023543 2.31663,-1.0527047 4.63937,-0.5258322 12.75847,2.8941529 8.96985,3.7783364 33.40883,14.2399174 49.87998,21.3521144 6.71536,2.899652 14.12444,5.910002 16.46465,6.689666 2.34019,0.779646 6.16961,2.060727 8.5098,2.846859 3.57712,1.201623 24.54766,10.183376 31.48194,13.483814 1.13715,0.541245 11.0764,4.950482 22.0872,9.798294 l 20.01965,8.814211 5.98683,5.767672 c 8.54602,8.233171 9.59532,9.589892 9.59037,12.400014 -0.006,3.419478 -1.64919,5.203243 -8.32275,9.034939 -2.23845,1.285226 -4.36128,2.565346 -4.71739,2.844726 -0.58509,0.459 -0.64749,1.31897 -0.64749,8.92413 v 8.41617 l -1.03384,1.73903 c -1.56835,2.63812 -3.68389,3.6665 -7.84035,3.81123 -3.08597,0.10745 -3.34474,0.0588 -7.3033,-1.37491 -10.63446,-3.85142 -20.73692,-3.20043 -28.4478,1.83312 -4.23688,2.76576 -7.91071,7.67219 -15.62215,20.8635 -2.15929,3.69372 -3.37804,5.36203 -5.10655,6.99024 -2.62303,2.47082 -5.95493,4.32815 -9.38438,5.23123 -2.89899,0.7634 -44.74651,4.95882 -49.76391,4.98908 -2.83676,0.0171 -3.63926,-0.1054 -5.41855,-0.82721 -2.63814,-1.0702 -4.79075,-3.37838 -5.95115,-6.38119 l -0.84002,-2.17381 -0.10347,-41.1271 c -0.10252,-40.765754 -0.11012,-41.139263 -0.86548,-42.510391 -0.41911,-0.760816 -0.91367,-1.383289 -1.09902,-1.383289 -0.51429,0 -0.40135,-1.557831 0.13439,-1.853331 0.25925,-0.142997 0.75873,-0.657196 1.10998,-1.142661 0.57806,-0.798989 0.63859,-2.145118 0.63859,-14.201094 0,-14.34858 0.0765,-13.759362 -1.9094,-14.693347 -1.1532,-0.542335 -8.03524,0.225338 -12.28193,1.370066 -2.00558,0.540602 -9.58118,2.95996 -16.83463,5.376346 -7.25345,2.416379 -14.31479,4.768366 -15.69188,5.226632 -1.37706,0.458265 -2.94295,1.19085 -3.47967,1.627967 l -0.97589,0.794763 0.25078,24.92241 0.25082,24.922409 -0.93346,3.57025 c -1.29692,4.96035 -2.68436,8.59594 -3.75289,9.83401 -0.49815,0.57717 -1.65592,1.43575 -2.57286,1.90795 -3.12246,1.60799 -7.42302,1.44388 -22.99406,-0.87746 -6.50578,-0.96989 -9.23469,-2.11686 -10.61428,-4.46119 -0.50488,-0.85791 -0.58864,-2.59893 -0.58864,-12.233311 0,-10.481838 -0.0434,-11.232942 -0.64751,-11.231797 -2.6729,0.0052 -25.337957,1.359594 -26.361904,1.575462 -2.219223,0.467877 -4.175698,1.552088 -6.349425,3.518641 -4.223748,3.821167 -16.905116,16.835235 -18.116911,18.592175 l -1.248092,1.80958 -0.08368,30.73723 c -0.09056,33.27171 -0.03914,32.41979 -2.058139,34.08657 -1.775342,1.46558 -5.593985,2.1793 -9.697935,1.81254 z m 4.208664,-5.52766 1.156219,-0.20319 v -30.13719 c 0,-33.71102 -0.142694,-31.80325 2.676233,-35.78238 1.494168,-2.1091 2.342758,-3.02679 9.320132,-10.078938 C 82.893913,87.35051 85.08145,85.68073 90.161974,84.634169 c 0.915725,-0.188633 7.934431,-0.664926 15.597116,-1.058426 13.73441,-0.705292 13.95433,-0.706668 15.49267,-0.09708 0.9537,0.377917 1.93848,1.119938 2.53249,1.908233 l 0.97196,1.289869 0.18501,11.552548 0.18498,11.552557 1.66497,0.42389 c 3.16572,0.806 17.72641,2.68633 20.83636,2.69076 2.32483,0.004 2.72217,-0.38169 3.94734,-3.82461 2.26136,-6.35488 2.23904,-5.98229 1.93095,-32.262514 -0.15411,-13.14327 -0.14912,-24.550291 0.0111,-25.348937 0.3516,-1.753072 1.64681,-3.553124 3.40417,-4.730982 1.6419,-1.100491 2.66245,-1.461841 23.72905,-8.401882 l 17.39619,-5.730854 4.45203,-0.319643 c 6.91061,-0.496149 10.61795,0.371216 12.84228,3.004529 1.69639,2.008327 1.75706,2.581788 1.74539,16.49297 l -0.0111,13.167657 1.10709,1.430717 c 1.46614,1.894733 1.46344,3.349658 -0.01,5.304273 l -1.11698,1.481873 0.0995,40.596573 0.0995,40.59656 0.89625,1.58744 c 0.70727,1.25268 1.23785,1.72021 2.51607,2.21705 1.83009,0.71138 -1.44469,0.94101 28.96197,-2.03085 21.19778,-2.07181 21.0347,-2.04995 23.73685,-3.18319 3.8181,-1.60124 5.07264,-3.06027 10.66937,-12.40835 7.88105,-13.16357 11.05166,-16.79273 17.91541,-20.50646 8.99215,-4.86532 21.75793,-5.17183 32.49275,-0.78015 2.5519,1.044 5.41585,1.09753 6.42378,0.12006 0.64722,-0.62766 0.71996,-1.42082 0.88983,-9.70337 l 0.18499,-9.01982 0.93092,-1.059857 c 0.51201,-0.582929 3.32826,-2.471052 6.25835,-4.195836 2.93007,-1.724792 5.49099,-3.369362 5.69092,-3.654627 0.8548,-1.219655 0.65348,-1.467528 -8.36729,-10.302277 -4.86851,-4.76812 -0.29163,-2.487484 -42.06708,-20.96178 -26.85751,-11.877202 -31.56869,-13.851662 -39.21904,-16.43676 -5.91416,-1.998436 -12.71788,-4.673306 -21.27455,-8.364082 -19.99353,-8.623899 -30.44452,-13.105227 -39.77413,-17.054964 -4.78214,-2.02454 -10.19327,-4.322117 -12.02472,-5.105726 l -3.32992,-1.424753 -0.18501,4.970754 c -0.16247,4.365722 -0.29093,5.159801 -1.05537,6.523948 -1.27547,2.2762 -2.82789,3.178516 -6.06697,3.526397 -2.79119,0.299767 -11.83378,1.095014 -18.2221,1.602521 -7.22952,0.574345 -11.28555,1.42682 -18.49959,3.888146 -8.47947,2.89305 -14.20933,5.613239 -19.4246,9.221619 C 119.0303,46.162964 96.786885,64.559119 76.102205,82.514992 69.285126,88.43276 62.202723,94.580931 60.363583,96.177598 53.194946,102.40109 42.749972,114.89578 28.311571,134.5195 c -1.427487,1.94012 -7.042968,9.72244 -13.135871,18.20459 -1.74556,2.43005 -2.263298,3.63284 -1.741518,4.04593 0.178426,0.14125 2.239098,0.80738 4.579294,1.4803 5.589573,1.60727 7.420773,2.45019 8.603241,3.96018 1.458577,1.8626 1.797776,2.89946 2.026138,6.19388 l 0.207807,2.99777 1.148759,0.32749 c 3.929424,1.12016 13.523384,2.3984 25.383233,3.38188 0.71225,0.0591 1.399042,0.13081 1.52622,0.15941 0.127211,0.0286 0.751568,-0.0394 1.387488,-0.15118 z m -39.357905,-3.69831 c -0.125755,-0.17883 -0.05235,-0.32512 0.163165,-0.32512 0.215522,0 0.39184,0.14629 0.39184,0.32512 0,0.17882 -0.07341,0.32512 -0.163164,0.32512 -0.08974,0 -0.266058,-0.1463 -0.391841,-0.32512 z m -0.308308,-4.4434 c -0.135691,-0.11923 -0.246669,-0.36794 -0.246669,-0.55273 0,-0.20371 0.172332,-0.18453 0.437821,0.0488 0.240804,0.2116 0.351812,0.46033 0.246669,0.55272 -0.105141,0.0924 -0.302158,0.0705 -0.437821,-0.0488 z M 180.44,8.3700969 c 0.25333,-0.2682079 0.62709,-0.4876884 0.83057,-0.4876884 0.20641,0 0.16632,0.2156519 -0.0906,0.4876884 -0.25333,0.2682305 -0.62708,0.4876936 -0.8306,0.4876936 -0.20639,0 -0.16633,-0.2156346 0.0906,-0.4876936 z"
       id="path17" /><path
       style="fill:#ffffff;fill-opacity:0.996109;stroke:#ffffff;stroke-width:1;stroke-linecap:round;stroke-dasharray:none"
       d="m 14.559666,166.95827 3.921748,1.21943 0.153793,1.84212 0.10253,1.19348 0.179426,1.6086 0.512647,1.73834 0.153794,0.20756 0.333221,0.72647 -6.023599,1.32321 z"
       id="path2" /><path
       style="fill:#ffffff;fill-opacity:0.996109;stroke:#ffffff;stroke-width:1;stroke-linecap:round;stroke-dasharray:none"
       d="M 220.80177,60.742618 V 75.86736 l 6.32692,-4.224027 z"
       id="path3" /><path
       style="fill:#ffffff;fill-opacity:0.996109;stroke:#ffffff;stroke-width:1;stroke-linecap:round;stroke-dasharray:none"
       d="M 206.80175,62.105208 V 74.232253 L 199.3306,66.806141 Z"
       id="path4" /><path
       style="fill:#ffffff;fill-opacity:0.996109;stroke:#ffffff;stroke-width:1;stroke-linecap:round;stroke-dasharray:none"
       d="m 178.46538,12.247056 0.26498,-2.4809297 0.56307,-3.654342 1.19237,-0.972256 1.42424,-1.3075169 -3.11345,-1.1398864 -4.86889,2.7491379 -0.62931,4.7607021 z"
       id="path5" /><path
       style="fill:#ffffff;fill-opacity:0.996109;stroke:#ffffff;stroke-width:0;stroke-linecap:round;stroke-dasharray:none"
       d="m 178.4985,12.414686 0.13249,-0.234683 0.0663,-2.179194 -1.2255,1.978038 z"
       id="path6" /></g></svg>
