<?xml version="1.0" encoding="UTF-8" standalone="no"?>
<!-- Created with Inkscape (http://www.inkscape.org/) -->

<svg
   width="210mm"
   height="297mm"
   viewBox="0 0 210 297"
   version="1.1"
   id="svg1"
   xml:space="preserve"
   inkscape:version="1.4 (e7c3feb1, 2024-10-09)"
   sodipodi:docname="drawing.svg"
   xmlns:inkscape="http://www.inkscape.org/namespaces/inkscape"
   xmlns:sodipodi="http://sodipodi.sourceforge.net/DTD/sodipodi-0.dtd"
   xmlns="http://www.w3.org/2000/svg"
   xmlns:svg="http://www.w3.org/2000/svg"><sodipodi:namedview
     id="namedview1"
     pagecolor="#ffffff"
     bordercolor="#000000"
     borderopacity="0.25"
     inkscape:showpageshadow="2"
     inkscape:pageopacity="0.0"
     inkscape:pagecheckerboard="0"
     inkscape:deskcolor="#d1d1d1"
     inkscape:document-units="mm"
     inkscape:zoom="0.0157541"
     inkscape:cx="12568.157"
     inkscape:cy="-14567.636"
     inkscape:window-width="1440"
     inkscape:window-height="762"
     inkscape:window-x="0"
     inkscape:window-y="25"
     inkscape:window-maximized="0"
     inkscape:current-layer="svg1" /><defs
     id="defs1" /><g
     inkscape:label="Layer 1"
     inkscape:groupmode="layer"
     id="layer1"><path
       style="fill:#000000;stroke-width:185.20833333;stroke-dasharray:none;stroke:#000000;stroke-opacity:1;stroke-linejoin:miter;stroke-linecap:round"
       d="m -540.96425,-375.69916 c -258.85652,-22.70012 -472.41595,-50.15561 -594.43705,-76.42163 -163.9769,-35.29736 -198.2918,-70.21783 -204.0616,-207.66285 -2.318,-55.2186 -7.4983,-84.49015 -16.2289,-91.70184 -7.0533,-5.82616 -77.9664,-29.02616 -157.5848,-51.55555 -162.0859,-45.86502 -195.9357,-66.00602 -211.4269,-125.80149 -8.3505,-32.23228 -2.5418,-87.36808 12.5766,-119.37808 17.2528,-36.5291 394.1805,-548.3071 601.8157,-817.1223 129.60382,-167.7919 318.96609,-390.7735 453.41148,-533.9102 181.31284,-193.0339 1579.61662,-1355.8561 1822.17962,-1515.3152 144.2859,-94.8525 290.7382,-162.7601 506.7592,-234.9764 237.4549,-79.3816 309.5489,-91.6656 739.2175,-125.9539 266.2693,-21.2487 256.8593,-19.7513 263.7644,-41.9725 3.0983,-9.9705 5.6905,-78.743 5.7603,-152.8278 0.1417,-150.3298 6.581,-172.0386 57.8063,-194.8807 58.2199,-25.9612 116.5932,-12.9674 320.6355,71.3729 225.4233,93.1781 839.6033,351.1721 1253.5426,526.5665 168.7648,71.509 354.9639,145.7475 413.7759,164.9746 58.8119,19.227 155.0497,50.82 213.8616,70.2066 89.8973,29.6334 616.9116,251.1335 791.1779,332.526 28.5781,13.3477 278.3631,122.0842 555.0777,241.6366 l 503.1174,217.3682 150.4561,142.2371 c 214.7714,203.0391 241.1419,236.4974 241.0174,305.7981 -0.1514,84.3278 -41.4463,128.3178 -209.1606,222.8113 -56.2549,31.6952 -109.6041,63.2645 -118.5538,70.1541 -14.704,11.3194 -16.2721,32.5273 -16.2721,220.0788 v 207.5523 l -25.9816,42.8863 c -39.4145,65.0592 -92.5804,90.42 -197.0372,93.9891 -77.5539,2.6498 -84.0572,1.4484 -183.5405,-33.9068 -267.2565,-94.9799 -521.1433,-78.9259 -714.9267,45.2067 -106.4777,68.2069 -198.8053,189.2047 -392.6031,514.5171 -54.2655,91.0911 -84.8941,132.2336 -128.3337,172.3869 -65.9199,60.93307 -149.6542,106.73683 -235.8405,129.00789 -72.8551,18.82622 -1124.5326,122.28988 -1250.6258,123.03613 -71.291,0.42191 -91.4588,-2.59934 -136.1744,-20.39971 -66.2995,-26.39252 -120.3975,-83.31468 -149.5594,-157.36705 l -21.1112,-53.60866 -2.5997,-1014.2397 c -2.5769,-1005.3284 -2.768,-1014.5395 -21.7508,-1048.3531 -10.533,-18.7624 -22.9619,-34.1134 -27.6198,-34.1134 -12.9249,0 -10.0861,-38.4178 3.3773,-45.7051 6.5153,-3.5265 19.0681,-16.2072 27.895,-28.1793 14.5275,-19.704 16.0488,-52.901 16.0488,-350.2146 0,-353.8519 1.9243,-339.3211 -47.9854,-362.354 -28.9818,-13.3749 -201.9345,5.5571 -308.6592,33.7869 -50.4031,13.3322 -240.7865,72.9963 -423.0741,132.5869 -182.2877,59.5906 -359.7475,117.5931 -394.3553,128.8945 -34.6077,11.3013 -73.9596,29.3677 -87.4486,40.1475 l -24.5254,19.5997 6.3028,614.6141 6.3029,614.6141 -23.4591,88.0464 c -32.5931,122.3277 -67.4604,211.9851 -94.3138,242.5172 -12.5189,14.2339 -41.6155,35.4074 -64.6591,47.0524 -78.4708,39.6547 -186.5491,35.6075 -577.8677,-21.6392 -163.4981,-23.9185 -232.0792,-52.204 -266.75,-110.018 -12.6877,-21.1569 -14.793,-64.0925 -14.793,-301.6866 0,-258.4939 -1.0882,-277.017 -16.2721,-276.9888 -67.17325,0.1248 -636.77358,33.5292 -662.50622,38.8528 -55.77184,11.5382 -104.94047,38.2761 -159.56891,86.7735 -106.14741,94.2342 -424.84535,415.1752 -455.29913,458.5035 l -31.36612,44.6264 -2.10276,758.0138 c -2.27615,820.5169 -0.98345,799.50786 -51.72356,840.61208 -44.6161,36.1432 -140.58297,53.74398 -243.72035,44.69946 z m 105.76854,-136.3179 29.05729,-5.01125 v -743.21619 c 0,-831.3511 -3.58589,-784.3031 67.25704,-882.4327 37.54983,-52.0129 58.87642,-74.6444 234.22597,-248.5579 287.62406,-285.2684 342.59928,-326.4469 470.27866,-352.2563 23.01337,-4.6519 199.40178,-16.3978 391.97424,-26.1019 345.16231,-17.3933 350.68831,-17.4273 389.34941,-2.3941 23.9678,9.3198 48.7159,27.6188 63.6441,47.0591 l 24.4264,31.8096 4.6492,284.8986 4.6491,284.8986 41.8425,10.4538 c 79.5589,19.8766 445.486,66.2475 523.6426,66.3569 58.4254,0.082 68.4115,-9.4129 99.2009,-94.319 56.8308,-156.7184 56.2704,-147.5298 48.5273,-795.6291 -3.8724,-324.1275 -3.7473,-605.4372 0.2781,-625.1327 8.836,-43.2327 41.3864,-87.6239 85.5504,-116.6712 41.2633,-27.1393 66.911,-36.0506 596.3399,-207.1995 l 437.1865,-141.3296 111.8845,-7.8825 c 173.6719,-12.2356 266.8416,9.1544 322.7415,74.0952 42.6323,49.5274 44.1574,63.6696 43.8642,406.7346 l -0.2776,324.7289 27.8225,35.283 c 36.8461,46.7262 36.7778,82.6063 -0.2489,130.8093 l -28.0715,36.5446 2.5011,1001.1561 2.501,1001.1561 22.5244,39.14781 c 17.7745,30.89248 31.1085,42.42216 63.2315,54.67511 45.9925,17.54329 -36.3068,23.20628 727.8483,-50.08312 532.7251,-51.0932 528.6269,-50.5539 596.5352,-78.5009 95.9534,-39.4886 127.4815,-75.4696 268.1337,-306.0038 198.0603,-324.6281 277.7413,-414.127 450.2355,-505.7117 225.9832,-119.9843 546.8026,-127.5432 816.5809,-19.2395 64.1326,25.7463 136.107,27.0663 161.4373,2.9607 16.2654,-15.4789 18.0933,-35.0388 22.3624,-239.2956 l 4.6492,-222.4389 23.3951,-26.1372 c 12.8673,-14.3755 83.6431,-60.9387 157.2796,-103.4738 73.6364,-42.5351 137.9952,-83.0922 143.0195,-90.127 21.482,-30.0781 16.4228,-36.1907 -210.2797,-254.0656 -122.3514,-117.5871 -7.3288,-61.3441 -1057.1954,-516.9406 -674.9633,-292.9049 -793.361,-341.5972 -985.6233,-405.3486 -148.6299,-49.2836 -319.6151,-115.249 -534.6542,-206.2676 -502.4616,-212.6747 -765.1068,-323.1891 -999.5708,-420.5941 -120.1809,-49.9275 -256.1691,-106.5884 -302.1958,-125.913 l -83.685,-35.1356 -4.6492,122.5841 c -4.0833,107.6633 -7.3115,127.2464 -26.5223,160.8877 -32.0548,56.1335 -71.0686,78.3859 -152.4701,86.9648 -70.1463,7.3927 -297.3975,27.0043 -457.9434,39.5201 -181.6862,14.1638 -283.6191,35.1867 -464.9167,95.8857 -213.0987,71.346 -357.0967,138.4289 -488.1625,227.4154 -157.845,107.1681 -716.84818,560.8375 -1236.678318,1003.6492 -171.321792,145.9386 -349.310462,297.5592 -395.530372,336.9347 -180.15648,153.4783 -442.65093,461.6111 -805.50501,945.5535 -35.8739,47.8454 -176.9981,239.7667 -330.1198,448.9452 -43.8682,59.928 -56.8794,89.5903 -43.7666,99.77713 4.4839,3.48341 56.2715,19.9111 115.0834,36.50599 140.4727,39.63697 186.4929,60.42441 216.2095,97.66242 36.6559,45.93371 45.1798,71.50378 50.9191,152.74771 l 5.2225,73.92876 28.8699,8.07606 c 98.7505,27.62447 339.85866,59.14705 637.91072,83.40071 17.89929,1.45654 35.15932,3.22568 38.35562,3.93143 3.1963,0.70575 18.88724,-0.97189 34.86875,-3.72807 z m -989.11019,-91.20472 c -3.1607,-4.4099 -1.3155,-8.01799 4.1004,-8.01799 5.4159,0 9.8471,3.60809 9.8471,8.01799 0,4.4099 -1.8452,8.018 -4.1004,8.018 -2.2552,0 -6.6864,-3.6081 -9.8471,-8.018 z m -7.7486,-109.57929 c -3.4094,-2.93993 -6.1989,-9.0737 -6.1989,-13.63059 0,-5.02411 4.3309,-4.55072 11.003,1.2027 6.0517,5.21838 8.8412,11.35214 6.1989,13.63059 -2.6423,2.27845 -7.5936,1.73723 -11.003,-1.2027 z M 2634.4166,-4624.2472 c 6.3665,-6.6148 15.7596,-12.027 20.8737,-12.027 5.1869,0 4.18,5.318 -2.2771,12.027 -6.3664,6.6149 -15.7596,12.027 -20.8737,12.027 -5.1868,0 -4.18,-5.318 2.2771,-12.027 z"
       id="path17" /></g><path
     style="fill:#cecece;fill-opacity:1;stroke:#ffffff;stroke-width:0.26458333;stroke-linecap:round;stroke-linejoin:miter;stroke-dasharray:none;stroke-opacity:1"
     d="m -1551.3653,-717.72933 111.4487,35.66356 8.9159,62.41124 8.9159,71.32714 22.2897,44.57946 -106.9907,40.12152 z"
     id="path18" /><path
     style="fill:#cecece;fill-opacity:1;stroke:#ffffff;stroke-width:0.264583;stroke-linecap:round;stroke-linejoin:miter;stroke-dasharray:none;stroke-opacity:1"
     d="m 2679.2256,-4756.6286 -66.8691,75.7852 -22.2898,84.701 -4.4579,89.1588 -249.645,-178.3178 222.8973,-133.7384 z"
     id="path19" /><path
     style="fill:#cecece;fill-opacity:1;stroke:#ffffff;stroke-width:0.264583;stroke-linecap:round;stroke-linejoin:miter;stroke-dasharray:none;stroke-opacity:1"
     d="m 3197.9888,-3256.4316 95.8461,14.0264 h 4.6755 l -2.3379,233.771 -140.2625,-130.9119 z"
     id="path20" /><path
     style="fill:#cecece;fill-opacity:1;stroke:#ffffff;stroke-width:0.264583;stroke-linecap:round;stroke-linejoin:miter;stroke-dasharray:none;stroke-opacity:1"
     d="m 3845.5346,-2866.0338 -196.3677,-126.2364 v -287.5384 l 184.6792,187.0168 v 205.7186 z"
     id="path21" /></svg>
